<svg width="9" height="15" viewBox="0 0 9 15" fill="none" xmlns="http://www.w3.org/2000/svg">
<path d="M8.59789 3.92676V1.49316C8.59789 1.1377 8.31078 0.905273 7.96214 0.980469L4.63304 1.70508C4.20921 1.79395 3.97679 2.02637 3.97679 2.40234L3.99046 9.58691C4.01781 9.8877 3.87425 10.0928 3.60765 10.1406L2.57542 10.3594C1.26976 10.6328 0.64769 11.2959 0.64769 12.2939C0.64769 13.2988 1.42015 14.0029 2.5139 14.0029C3.49828 14.0029 4.91331 13.2715 4.91331 11.3984V5.48535C4.91331 5.15039 4.968 5.08887 5.26195 5.02051L8.22874 4.37109C8.45433 4.32324 8.59789 4.15234 8.59789 3.92676Z" fill="white" fill-opacity="0.6"/>
</svg>
