<svg width="20" height="13" viewBox="0 0 20 13" fill="none" xmlns="http://www.w3.org/2000/svg">
<path d="M3.13597 12.2305C4.04515 12.2305 4.66722 11.8955 5.22093 11.2256L6.38304 9.83105C6.55394 9.63281 6.73851 9.53711 6.93675 9.53711H13.1164C13.3147 9.53711 13.4993 9.63281 13.6702 9.83105L14.8323 11.2256C15.386 11.8955 16.008 12.2305 16.9172 12.2305C18.4006 12.2305 19.4055 11.2461 19.4055 9.71484C19.4055 9.05859 19.2551 8.30664 19.0022 7.46582C18.6057 6.13965 17.9153 4.33496 17.2522 2.94043C16.6985 1.77148 16.4045 1.22461 15.0237 0.910156C13.7932 0.629883 12.0979 0.445312 10.0266 0.445312C7.95531 0.445312 6.25999 0.629883 5.03636 0.910156C3.64867 1.22461 3.35472 1.77148 2.80101 2.94043C2.13792 4.33496 1.44749 6.13965 1.05101 7.46582C0.79808 8.30664 0.64769 9.05859 0.64769 9.71484C0.64769 11.2461 1.65257 12.2305 3.13597 12.2305ZM4.7766 5.05273C4.7766 4.71777 4.98167 4.50586 5.33031 4.50586H6.47191V3.40527C6.47191 3.06348 6.67015 2.85156 7.00511 2.85156C7.3264 2.85156 7.53148 3.06348 7.53148 3.40527V4.50586H8.60472C8.97386 4.50586 9.19261 4.71777 9.19261 5.05273C9.19261 5.39453 8.97386 5.60645 8.60472 5.60645H7.53148V6.71387C7.53148 7.05566 7.3264 7.26758 7.00511 7.26758C6.67015 7.26758 6.47191 7.05566 6.47191 6.71387V5.60645H5.33031C4.98167 5.60645 4.7766 5.39453 4.7766 5.05273ZM13.0549 4.04102C13.0549 3.50781 13.4651 3.09082 13.9914 3.09082C14.5246 3.09082 14.928 3.50781 14.928 4.04102C14.928 4.56738 14.5246 4.9707 13.9914 4.9707C13.4651 4.9707 13.0549 4.56738 13.0549 4.04102ZM11.1477 5.96191C11.1477 5.42871 11.5578 5.01855 12.0842 5.01855C12.6106 5.01855 13.0207 5.42871 13.0207 5.96191C13.0207 6.49512 12.6106 6.89844 12.0842 6.89844C11.5578 6.89844 11.1477 6.49512 11.1477 5.96191Z" fill="white" fill-opacity="0.6"/>
</svg>
