<svg width="14" height="14" viewBox="0 0 14 14" fill="none" xmlns="http://www.w3.org/2000/svg">
<path d="M6.77953 13.9551C10.4026 13.9551 13.4035 10.9541 13.4035 7.33105C13.4035 3.70801 10.3957 0.707031 6.77269 0.707031C3.15648 0.707031 0.155502 3.70801 0.155502 7.33105C0.155502 10.9541 3.15648 13.9551 6.77953 13.9551ZM5.00218 6.05957C4.98167 5.81348 4.86546 5.58789 4.69456 5.42383C5.26195 4.00195 6.15746 2.70996 7.31956 1.66406C7.4016 1.6709 7.49046 1.68457 7.57249 1.69824C6.74535 3.11328 6.24632 4.69922 6.11644 6.34668C5.74046 6.27832 5.36449 6.18262 5.00218 6.05957ZM2.03539 4.21387C2.94456 2.83984 4.44164 1.86914 6.14378 1.6709C5.18675 2.68262 4.44164 3.8584 3.93578 5.13672C3.73753 5.14355 3.5598 5.20508 3.40941 5.30762C2.91039 5 2.45238 4.63086 2.03539 4.21387ZM8.79613 4.27539C8.78929 3.55078 8.88499 2.82617 9.09691 2.14258C10.341 2.70996 11.3596 3.71484 11.9407 4.95215C11.2776 5.45801 10.5325 5.84082 9.74632 6.09375C9.56175 5.86133 9.27464 5.7041 8.96019 5.69727C8.85765 5.23926 8.80296 4.76074 8.79613 4.27539ZM7.98265 4.28223C7.98949 4.87695 8.06468 5.45801 8.19456 6.02539C8.08519 6.1416 8.00316 6.27832 7.96214 6.43555C7.79808 6.44922 7.63402 6.45605 7.46996 6.45605C7.28539 6.45605 7.10765 6.44922 6.92992 6.44238C7.03929 4.91797 7.49046 3.46191 8.24242 2.16309C8.06468 2.84668 7.97581 3.55078 7.98265 4.28223ZM1.09203 7.33105C1.09203 6.49023 1.2766 5.69043 1.61156 4.96582C2.02855 5.35547 2.47972 5.7041 2.96507 6.00488C2.95824 6.05273 2.9514 6.10742 2.9514 6.16211C2.9514 6.51074 3.1223 6.81836 3.3889 7.00293C3.25902 7.66602 3.18382 8.34277 3.18382 9.0332C2.44554 8.6709 1.74828 8.21973 1.09886 7.67285C1.09203 7.56348 1.09203 7.44727 1.09203 7.33105ZM12.4739 7.33105C12.4739 7.87109 12.3918 8.4043 12.2483 8.90332C11.8723 9.10156 11.4895 9.27246 11.0998 9.42285C10.4914 8.8623 9.98558 8.20605 9.60277 7.48145C9.77367 7.33105 9.89671 7.12598 9.93773 6.89355C10.758 6.63379 11.5373 6.25098 12.2483 5.75195C12.3918 6.25098 12.4739 6.78418 12.4739 7.33105ZM6.0891 7.17383C6.0891 8.00781 6.1848 8.82812 6.36253 9.62109C6.25999 9.70996 6.16429 9.81934 6.10277 9.94238C5.38499 9.83301 4.68089 9.64844 3.9973 9.38867C3.97679 8.63672 4.03831 7.8916 4.18187 7.17383C4.40746 7.13281 4.61253 7.00977 4.75609 6.83887C5.18675 6.98242 5.63109 7.0918 6.0891 7.16016V7.17383ZM7.46996 7.26953C7.67503 7.26953 7.87328 7.2627 8.07152 7.24902C8.23558 7.50195 8.50218 7.68652 8.81664 7.7207C9.17894 8.45215 9.65746 9.12207 10.2317 9.70312C9.48656 9.9082 8.72777 10.0244 7.96898 10.0518C7.83226 9.70996 7.52464 9.45703 7.1555 9.40918C6.99144 8.70508 6.90941 7.9873 6.90257 7.25586C7.08714 7.2627 7.27855 7.26953 7.46996 7.26953ZM1.30394 8.86914C1.9055 9.29297 2.54124 9.65527 3.20433 9.94238C3.23851 10.626 3.34105 11.3096 3.51878 11.9727C2.46605 11.2275 1.66624 10.1338 1.30394 8.86914ZM6.77953 13.0254C6.00023 13.0254 5.24828 12.8613 4.56468 12.5605C4.28441 11.8223 4.11351 11.0566 4.04515 10.2705C4.69456 10.4961 5.35765 10.6602 6.03441 10.7559C6.17113 11.1455 6.53343 11.4326 6.9641 11.4531C7.18968 11.9658 7.44945 12.4648 7.75023 12.9365C7.43578 12.9912 7.10765 13.0254 6.77953 13.0254ZM7.72972 11.1592C7.81859 11.0771 7.88695 10.9746 7.94164 10.8652C8.95335 10.8311 9.95824 10.6602 10.9358 10.3457C11.0793 10.4551 11.2229 10.5645 11.3733 10.667C10.6828 11.6104 9.70531 12.3418 8.57738 12.7246C8.24925 12.2256 7.96214 11.7061 7.72972 11.1592Z" fill="white" fill-opacity="0.6"/>
</svg>
