<svg width="13" height="16" viewBox="0 0 13 16" fill="none" xmlns="http://www.w3.org/2000/svg">
<path d="M3.18382 1.63867H9.49339C9.45921 1.07812 9.13792 0.78418 8.52953 0.78418H4.15453C3.54613 0.78418 3.22484 1.07812 3.18382 1.63867ZM2.06273 3.45703H10.6145C10.5188 2.8623 10.2317 2.52734 9.56859 2.52734H3.11546C2.45238 2.52734 2.15843 2.8623 2.06273 3.45703ZM2.71214 15.8916H10.1702C11.3596 15.8916 12.05 15.208 12.05 13.8613V6.5332C12.05 5.17969 11.3528 4.49609 9.98558 4.49609H2.71214C1.34496 4.49609 0.64769 5.17969 0.64769 6.5332V13.8613C0.64769 15.208 1.34496 15.8916 2.71214 15.8916ZM4.27757 11.9199C3.01976 11.9199 2.09691 12.6514 1.76878 13.4717V6.60156C1.76878 5.94531 2.11742 5.61035 2.74632 5.61035H9.9514C10.5735 5.61035 10.9289 5.94531 10.9289 6.60156V13.0889C10.4436 12.4463 9.56175 11.9336 8.39964 11.9336C6.5471 11.9336 5.38499 13.2598 5.38499 14.2988C5.38499 14.5107 5.43285 14.668 5.50121 14.7773H4.69456C4.65355 14.627 4.63304 14.4629 4.63304 14.2988C4.63304 13.5264 5.00218 12.8018 5.61058 12.2412C5.25511 12.0293 4.81761 11.9199 4.27757 11.9199ZM8.39964 11.1611C9.1721 11.1611 9.82835 10.4775 9.82835 9.58203C9.82835 8.7002 9.1721 8.04395 8.39964 8.04395C7.63402 8.04395 6.9641 8.7207 6.97093 9.5957C6.97093 10.4775 7.63402 11.1611 8.39964 11.1611ZM4.28441 11.25C4.95433 11.25 5.52855 10.6484 5.52855 9.8623C5.52855 9.09668 4.95433 8.5293 4.28441 8.5293C3.61449 8.5293 3.03343 9.11035 3.03343 9.86914C3.03343 10.6484 3.61449 11.25 4.28441 11.25Z" fill="white" fill-opacity="0.6"/>
</svg>
