<svg width="9" height="38" viewBox="0 0 9 38" fill="none" xmlns="http://www.w3.org/2000/svg">
    <mask id="path-1-inside-1_2_282" fill="white">
        <path fill-rule="evenodd" clip-rule="evenodd"
              d="M4.12467 0.503418C2.01747 3.25297 0.82309 6.66026 0.82309 10.2376V27.7624C0.82309 31.3398 2.01747 34.7471 4.12467 37.4966C4.24294 36.4423 4.44506 35.3978 4.72965 34.3733L7.51309 24.3529C8.48595 20.8506 8.48595 17.1494 7.51309 13.6471L4.72965 3.62673C4.44506 2.6022 4.24294 1.55776 4.12467 0.503418Z"/>
    </mask>
    <path fill-rule="evenodd" clip-rule="evenodd"
          d="M4.12467 0.503418C2.01747 3.25297 0.82309 6.66026 0.82309 10.2376V27.7624C0.82309 31.3398 2.01747 34.7471 4.12467 37.4966C4.24294 36.4423 4.44506 35.3978 4.72965 34.3733L7.51309 24.3529C8.48595 20.8506 8.48595 17.1494 7.51309 13.6471L4.72965 3.62673C4.44506 2.6022 4.24294 1.55776 4.12467 0.503418Z"
          fill="url(#paint0_linear_2_282)"/>
    <path d="M4.12467 0.503418L5.11843 0.391939L4.84159 -2.076L3.33095 -0.10487L4.12467 0.503418ZM4.12467 37.4966L3.33095 38.1049L4.84159 40.076L5.11843 37.6081L4.12467 37.4966ZM4.72965 34.3733L5.69316 34.6409L5.69316 34.6409L4.72965 34.3733ZM7.51309 24.3529L6.54958 24.0852L6.54958 24.0852L7.51309 24.3529ZM7.51309 13.6471L6.54958 13.9148L6.54958 13.9148L7.51309 13.6471ZM4.72965 3.62673L3.76613 3.89437L3.76613 3.89437L4.72965 3.62673ZM1.82309 10.2376C1.82309 6.88396 2.94266 3.68971 4.91838 1.11171L3.33095 -0.10487C1.09228 2.81623 -0.17691 6.43656 -0.17691 10.2376H1.82309ZM1.82309 27.7624V10.2376H-0.17691V27.7624H1.82309ZM4.91838 36.8883C2.94266 34.3103 1.82309 31.1161 1.82309 27.7624H-0.17691C-0.17691 31.5635 1.09228 35.1838 3.33095 38.1049L4.91838 36.8883ZM5.11843 37.6081C5.23079 36.6065 5.4228 35.6142 5.69316 34.6409L3.76613 34.1057C3.46731 35.1814 3.25509 36.2781 3.1309 37.3851L5.11843 37.6081ZM5.69316 34.6409L8.47661 24.6205L6.54958 24.0852L3.76613 34.1057L5.69316 34.6409ZM8.47661 24.6205C9.49811 20.9431 9.49811 17.0569 8.47661 13.3795L6.54958 13.9148C7.47379 17.2419 7.47379 20.7581 6.54958 24.0852L8.47661 24.6205ZM8.47661 13.3795L5.69316 3.35908L3.76613 3.89437L6.54958 13.9148L8.47661 13.3795ZM5.69316 3.35908C5.4228 2.38578 5.23079 1.39357 5.11843 0.391939L3.1309 0.614897C3.25509 1.72196 3.46731 2.81862 3.76613 3.89437L5.69316 3.35908Z"
          fill="white" fill-opacity="0.4" style="mix-blend-mode:overlay" mask="url(#path-1-inside-1_2_282)"/>
    <defs>
        <linearGradient id="paint0_linear_2_282" x1="28.5" y1="21" x2="8.5" y2="43" gradientUnits="userSpaceOnUse">
            <stop stop-color="#C441F4"/>
            <stop offset="1" stop-color="#00DAEA"/>
        </linearGradient>
    </defs>
</svg>
