<svg width="64" height="68" viewBox="0 0 64 68" fill="none" xmlns="http://www.w3.org/2000/svg">
    <path d="M24.25 3.05182C29.0457 0.283006 34.9543 0.283007 39.75 3.05182L54.9269 11.8142C59.7226 14.583 62.6769 19.7 62.6769 25.2376V42.7624C62.6769 48.3 59.7226 53.417 54.9269 56.1858L39.75 64.9482C34.9543 67.717 29.0457 67.717 24.25 64.9482L9.07309 56.1858C4.27737 53.417 1.32309 48.3 1.32309 42.7624V25.2376C1.32309 19.7 4.27737 14.583 9.07309 11.8142L24.25 3.05182Z"
          fill="url(#paint0_linear_2_283)"/>
    <path d="M24.25 3.05182C29.0457 0.283006 34.9543 0.283007 39.75 3.05182L54.9269 11.8142C59.7226 14.583 62.6769 19.7 62.6769 25.2376V42.7624C62.6769 48.3 59.7226 53.417 54.9269 56.1858L39.75 64.9482C34.9543 67.717 29.0457 67.717 24.25 64.9482L9.07309 56.1858C4.27737 53.417 1.32309 48.3 1.32309 42.7624V25.2376C1.32309 19.7 4.27737 14.583 9.07309 11.8142L24.25 3.05182Z"
          stroke="white" style="mix-blend-mode:overlay"/>
    <defs>
        <linearGradient id="paint0_linear_2_283" x1="28.5" y1="36" x2="8.5" y2="58" gradientUnits="userSpaceOnUse">
            <stop stop-color="#C441F4"/>
            <stop offset="1" stop-color="#00DAEA"/>
        </linearGradient>
    </defs>
</svg>
